<svg width="1203" height="1080" viewBox="0 0 1203 1080" fill="none" xmlns="http://www.w3.org/2000/svg">
<path d="M295.5 405.5C295.5 405.5 264.5 503.5 307 616C349.5 728.5 459.309 793.163 540.501 810C628.971 828.346 698.001 799.5 698.001 799.5M801.501 737.5C801.501 737.5 886.9 674.5 908 569C929.1 463.5 903.001 392.5 903.001 392.5M848.501 289C848.501 289 759.001 176 596.001 176C447.001 176 351 293 351 293" stroke="#65C6F4" stroke-width="20"/>
<line x1="320.991" y1="352.379" x2="712.887" y2="722.432" stroke="#CED5D9" stroke-width="10"/>
<line x1="316.857" y1="350.956" x2="855.931" y2="335.502" stroke="#CED5D9" stroke-width="10"/>
<circle cx="50.5" cy="50.5" r="50.5" transform="matrix(-1 0 0 1 360 291.5)" fill="#FF5757"/>
<circle cx="50.5" cy="50.5" r="50.5" transform="matrix(-1 0 0 1 796 708.5)" fill="#65C6F4"/>
<circle cx="50.5" cy="50.5" r="50.5" transform="matrix(-1 0 0 1 944 280.5)" fill="#65C6F4"/>
<path d="M403.019 524.614C400.141 527.492 396.71 529.733 392.726 531.338C388.769 532.943 384.439 533.745 379.735 533.745C375.059 533.745 370.729 532.943 366.744 531.338C362.76 529.733 359.301 527.478 356.368 524.573C353.435 521.64 351.153 518.209 349.52 514.28C347.915 510.323 347.113 506.021 347.113 501.372C347.113 496.696 347.915 492.393 349.52 488.464C351.153 484.535 353.435 481.118 356.368 478.213C359.301 475.28 362.76 473.011 366.744 471.406C370.729 469.801 375.059 468.999 379.735 468.999C384.411 468.999 388.727 469.801 392.684 471.406C396.641 473.011 400.058 475.238 402.936 478.088L395.299 485.85C393.39 483.581 391.093 481.81 388.409 480.537C385.725 479.264 382.778 478.628 379.569 478.628C376.525 478.628 373.703 479.195 371.102 480.33C368.529 481.464 366.288 483.055 364.378 485.103C362.469 487.15 360.975 489.557 359.896 492.324C358.845 495.091 358.319 498.107 358.319 501.372C358.319 504.637 358.845 507.653 359.896 510.42C360.975 513.159 362.469 515.566 364.378 517.642C366.288 519.689 368.529 521.28 371.102 522.415C373.703 523.549 376.525 524.116 379.569 524.116C382.778 524.116 385.725 523.48 388.409 522.207C391.093 520.934 393.39 519.163 395.299 516.895L403.019 524.614ZM422.733 532.5H411.776V470.244H422.733V497.014H452.242V470.244H463.199V532.5H452.242V506.643H422.733V532.5ZM474.281 532.5V470.244H485.238V532.5H474.281ZM493.373 526.025L498.561 517.642C500.47 519.136 502.31 520.381 504.081 521.377C505.851 522.345 507.636 523.065 509.435 523.535C511.233 524.006 513.059 524.241 514.913 524.241C517.293 524.241 519.354 523.881 521.097 523.162C522.868 522.415 524.238 521.391 525.206 520.09C526.174 518.79 526.659 517.268 526.659 515.525C526.659 513.56 526.064 511.928 524.874 510.627C523.712 509.299 522.176 508.165 520.267 507.224C518.358 506.256 516.31 505.315 514.125 504.402C512.132 503.572 510.112 502.673 508.065 501.704C506.045 500.736 504.205 499.587 502.545 498.259C500.885 496.903 499.543 495.271 498.519 493.362C497.523 491.453 497.025 489.142 497.025 486.431C497.025 482.917 497.91 479.859 499.681 477.258C501.452 474.63 503.901 472.61 507.027 471.199C510.154 469.76 513.723 469.041 517.735 469.041C520.558 469.041 523.449 469.414 526.41 470.161C529.398 470.881 532.345 471.987 535.25 473.481L530.892 482.322C528.928 481.16 526.839 480.26 524.625 479.624C522.411 478.96 520.295 478.628 518.275 478.628C516.283 478.628 514.526 478.946 513.004 479.583C511.51 480.191 510.334 481.077 509.476 482.239C508.646 483.373 508.231 484.701 508.231 486.223C508.231 488.022 508.784 489.543 509.891 490.789C511.026 492.034 512.506 493.14 514.332 494.109C516.158 495.05 518.109 495.977 520.184 496.89C522.259 497.803 524.334 498.785 526.41 499.836C528.513 500.86 530.422 502.078 532.137 503.489C533.88 504.9 535.264 506.588 536.288 508.552C537.339 510.517 537.865 512.882 537.865 515.649C537.865 519.246 536.924 522.415 535.042 525.154C533.189 527.865 530.574 529.982 527.198 531.504C523.823 532.998 519.88 533.745 515.37 533.745C511.33 533.745 507.456 533.095 503.749 531.794C500.041 530.494 496.582 528.571 493.373 526.025ZM671.798 524.614C668.92 527.492 665.489 529.733 661.505 531.338C657.548 532.943 653.218 533.745 648.514 533.745C643.838 533.745 639.508 532.943 635.523 531.338C631.539 529.733 628.08 527.478 625.147 524.573C622.215 521.64 619.932 518.209 618.299 514.28C616.694 510.323 615.892 506.021 615.892 501.372C615.892 496.696 616.694 492.393 618.299 488.464C619.932 484.535 622.215 481.118 625.147 478.213C628.08 475.28 631.539 473.011 635.523 471.406C639.508 469.801 643.838 468.999 648.514 468.999C653.19 468.999 657.507 469.801 661.463 471.406C665.42 473.011 668.837 475.238 671.715 478.088L664.078 485.85C662.169 483.581 659.872 481.81 657.188 480.537C654.505 479.264 651.558 478.628 648.348 478.628C645.305 478.628 642.482 479.195 639.881 480.33C637.308 481.464 635.067 483.055 633.158 485.103C631.249 487.15 629.754 489.557 628.675 492.324C627.624 495.091 627.098 498.107 627.098 501.372C627.098 504.637 627.624 507.653 628.675 510.42C629.754 513.159 631.249 515.566 633.158 517.642C635.067 519.689 637.308 521.28 639.881 522.415C642.482 523.549 645.305 524.116 648.348 524.116C651.558 524.116 654.505 523.48 657.188 522.207C659.872 520.934 662.169 519.163 664.078 516.895L671.798 524.614ZM736.336 532.5H723.968L691.512 487.219V532.5H680.555V470.244H692.923L725.379 515.566V470.244H736.336V532.5ZM747.376 532.5V470.244H786.847V479.873H758.333V496.267H785.187V505.854H758.333V522.871H787.262V532.5H747.376ZM823.329 532.5H812.372V479.873H793.446V470.244H842.213V479.873H823.329V532.5Z" fill="#5E5E5E"/>
<path d="M577.044 533.745C572.341 533.745 567.997 532.943 564.012 531.338C560.056 529.733 556.611 527.478 553.678 524.573C550.745 521.64 548.462 518.209 546.83 514.28C545.225 510.323 544.422 506.021 544.422 501.372C544.422 496.696 545.225 492.393 546.83 488.464C548.462 484.535 550.745 481.118 553.678 478.213C556.611 475.28 560.056 473.011 564.012 471.406C567.997 469.801 572.354 468.999 577.086 468.999C581.79 468.999 586.12 469.801 590.077 471.406C594.033 473.011 597.478 475.28 600.411 478.213C603.344 481.118 605.613 484.535 607.218 488.464C608.823 492.393 609.625 496.696 609.625 501.372C609.625 506.021 608.823 510.323 607.218 514.28C605.613 518.209 603.344 521.64 600.411 524.573C597.478 527.478 594.033 529.733 590.077 531.338C586.12 532.943 581.776 533.745 577.044 533.745ZM577.044 524.116C580.116 524.116 582.952 523.549 585.553 522.415C588.154 521.28 590.409 519.689 592.318 517.642C594.255 515.566 595.749 513.145 596.8 510.378C597.879 507.611 598.419 504.609 598.419 501.372C598.419 498.135 597.879 495.133 596.8 492.366C595.749 489.599 594.255 487.192 592.318 485.144C590.409 483.069 588.154 481.464 585.553 480.33C582.952 479.195 580.116 478.628 577.044 478.628C574.001 478.628 571.165 479.195 568.536 480.33C565.935 481.464 563.666 483.069 561.729 485.144C559.82 487.192 558.326 489.599 557.247 492.366C556.168 495.133 555.628 498.135 555.628 501.372C555.628 504.609 556.168 507.611 557.247 510.378C558.326 513.145 559.82 515.566 561.729 517.642C563.666 519.689 565.935 521.28 568.536 522.415C571.165 523.549 574.001 524.116 577.044 524.116Z" fill="#FF5757"/>
</svg>
